<svg xmlns="http://www.w3.org/2000/svg" version="1.1" xmlns:xlink="http://www.w3.org/1999/xlink" xmlns:svgjs="http://svgjs.dev/svgjs"  viewBox="0 0 443.2463745117187 312" class="svg-animations " style="background: rgb(31, 23, 23);"><svg viewBox="0 0 254.1064910888672 265.0086669921875" width="100%" height="100%" style="fill: rgb(90, 237, 131);"><svg xmlns="http://www.w3.org/2000/svg" viewBox="0 0 293.19 299.99"><path class="cls-1" d="m165.25,106.3l-37.92,37.92-4.93-4.93c-5.37-5.37-14.13-5.37-19.5,0-5.37,5.37-5.37,14.13,0,19.5l22.01,22.01c.67.67,1.54,1.01,2.42,1.01s1.74-.34,2.42-1.01l54.99-54.99c2.62-2.62,4.03-6.07,4.03-9.73s-1.44-7.15-4.03-9.73c-5.4-5.4-14.13-5.4-19.49-.04h0Z"></path><path class="cls-1" d="m238.36,123.48c-2.45-11.41-6.91-22.18-13.26-32.01-.87-1.34-.67-3.12.44-4.26l22.55-22.55-25.03-25.03-22.55,22.55c-1.14,1.14-2.92,1.31-4.26.44-9.83-6.34-20.6-10.8-32.01-13.26-1.58-.34-2.68-1.71-2.68-3.32V14.12h-35.36v31.91c0,1.61-1.1,2.99-2.68,3.32-11.41,2.45-22.18,6.91-32.01,13.26-1.34.87-3.12.67-4.26-.44l-22.55-22.55-25.03,25.03,22.55,22.55c1.14,1.14,1.31,2.92.44,4.26-6.34,9.83-10.8,20.6-13.26,32.01-.34,1.58-1.71,2.69-3.32,2.69H14.16s0,35.39,0,35.39h31.91c1.61,0,2.99,1.11,3.32,2.69,2.45,11.41,6.91,22.18,13.26,32.01.87,1.34.67,3.12-.44,4.26l-22.55,22.55,25.03,25.03,22.55-22.55c1.14-1.14,2.92-1.31,4.26-.47,9.83,6.34,20.6,10.8,32.01,13.26,1.58.34,2.69,1.71,2.69,3.32v31.91h35.4v-31.91c0-1.61,1.1-2.99,2.68-3.32,11.41-2.45,22.18-6.91,32.01-13.25,1.34-.87,3.12-.67,4.26.47l22.55,22.55,25.03-25.03-22.55-22.55c-1.14-1.14-1.31-2.92-.44-4.26,6.34-9.83,10.8-20.6,13.26-32.01.34-1.58,1.71-2.69,3.32-2.69h31.91s0-35.39,0-35.39h-31.91c-1.61,0-3.02-1.15-3.35-2.69h0Zm-94.49,92.64c-39.83,0-72.24-32.42-72.24-72.24s32.41-72.24,72.24-72.24,72.24,32.42,72.24,72.24c.03,39.83-32.38,72.24-72.24,72.24Z"></path><path class="cls-1" d="m40.93,279.53c0,11.3-9.16,20.47-20.47,20.47S0,290.83,0,279.53s9.16-20.47,20.47-20.47,20.47,9.16,20.47,20.47Z"></path><path class="cls-1" d="m293.19,13.62c0,7.52-6.1,13.62-13.62,13.62s-13.62-6.1-13.62-13.62,6.1-13.62,13.62-13.62,13.62,6.1,13.62,13.62Z"></path></svg></svg></svg>